<?xml version="1.0" encoding="UTF-8"?>
<svg xmlns="http://www.w3.org/2000/svg" style="display:none">
  <!-- Shield -->
  <symbol id="icon-shield" viewBox="0 0 24 24" fill="none" stroke="currentColor" stroke-width="2" stroke-linecap="round" stroke-linejoin="round">
    <path d="M12 22s8-4 8-10V5l-8-3-8 3v7c0 6 8 10 8 10z"/>
  </symbol>

  <!-- Users / People -->
  <symbol id="icon-users" viewBox="0 0 24 24" fill="none" stroke="currentColor" stroke-width="2" stroke-linecap="round" stroke-linejoin="round">
    <path d="M17 21v-2a4 4 0 0 0-4-4H5a4 4 0 0 0-4 4v2"/>
    <circle cx="9" cy="7" r="4"/>
    <path d="M23 21v-2a4 4 0 0 0-3-3.87"/>
    <path d="M16 3.13a4 4 0 0 1 0 7.75"/>
  </symbol>

  <!-- Brain -->
  <symbol id="icon-brain" viewBox="0 0 24 24" fill="none" stroke="currentColor" stroke-width="2" stroke-linecap="round" stroke-linejoin="round">
    <path d="M12 2a7 7 0 0 0-7 7c0 2.38 1.19 4.47 3 5.74V17a2 2 0 0 0 2 2h4a2 2 0 0 0 2-2v-2.26c1.81-1.27 3-3.36 3-5.74a7 7 0 0 0-7-7z"/>
    <path d="M9 21h6"/>
    <path d="M10 17v4"/>
    <path d="M14 17v4"/>
  </symbol>

  <!-- Building / Institution -->
  <symbol id="icon-building" viewBox="0 0 24 24" fill="none" stroke="currentColor" stroke-width="2" stroke-linecap="round" stroke-linejoin="round">
    <path d="M6 22V4a2 2 0 0 1 2-2h8a2 2 0 0 1 2 2v18"/>
    <path d="M6 12H4a2 2 0 0 0-2 2v6a2 2 0 0 0 2 2h2"/>
    <path d="M18 9h2a2 2 0 0 1 2 2v9a2 2 0 0 1-2 2h-2"/>
    <path d="M10 6h4"/>
    <path d="M10 10h4"/>
    <path d="M10 14h4"/>
    <path d="M10 18h4"/>
  </symbol>

  <!-- Chart / Analytics -->
  <symbol id="icon-chart" viewBox="0 0 24 24" fill="none" stroke="currentColor" stroke-width="2" stroke-linecap="round" stroke-linejoin="round">
    <path d="M18 20V10"/>
    <path d="M12 20V4"/>
    <path d="M6 20v-6"/>
  </symbol>

  <!-- Check -->
  <symbol id="icon-check" viewBox="0 0 24 24" fill="none" stroke="currentColor" stroke-width="2" stroke-linecap="round" stroke-linejoin="round">
    <polyline points="20 6 9 17 4 12"/>
  </symbol>

  <!-- Globe -->
  <symbol id="icon-globe" viewBox="0 0 24 24" fill="none" stroke="currentColor" stroke-width="2" stroke-linecap="round" stroke-linejoin="round">
    <circle cx="12" cy="12" r="10"/>
    <path d="M2 12h20"/>
    <path d="M12 2a15.3 15.3 0 0 1 4 10 15.3 15.3 0 0 1-4 10 15.3 15.3 0 0 1-4-10 15.3 15.3 0 0 1 4-10z"/>
  </symbol>

  <!-- Server / Infrastructure -->
  <symbol id="icon-server" viewBox="0 0 24 24" fill="none" stroke="currentColor" stroke-width="2" stroke-linecap="round" stroke-linejoin="round">
    <rect x="2" y="2" width="20" height="8" rx="2" ry="2"/>
    <rect x="2" y="14" width="20" height="8" rx="2" ry="2"/>
    <line x1="6" y1="6" x2="6.01" y2="6"/>
    <line x1="6" y1="18" x2="6.01" y2="18"/>
  </symbol>

  <!-- Lock / Security -->
  <symbol id="icon-lock" viewBox="0 0 24 24" fill="none" stroke="currentColor" stroke-width="2" stroke-linecap="round" stroke-linejoin="round">
    <rect x="3" y="11" width="18" height="11" rx="2" ry="2"/>
    <path d="M7 11V7a5 5 0 0 1 10 0v4"/>
  </symbol>

  <!-- File / Document -->
  <symbol id="icon-file" viewBox="0 0 24 24" fill="none" stroke="currentColor" stroke-width="2" stroke-linecap="round" stroke-linejoin="round">
    <path d="M14 2H6a2 2 0 0 0-2 2v16a2 2 0 0 0 2 2h12a2 2 0 0 0 2-2V8z"/>
    <polyline points="14 2 14 8 20 8"/>
    <line x1="16" y1="13" x2="8" y2="13"/>
    <line x1="16" y1="17" x2="8" y2="17"/>
  </symbol>

  <!-- Arrow right -->
  <symbol id="icon-arrow-right" viewBox="0 0 24 24" fill="none" stroke="currentColor" stroke-width="2" stroke-linecap="round" stroke-linejoin="round">
    <line x1="5" y1="12" x2="19" y2="12"/>
    <polyline points="12 5 19 12 12 19"/>
  </symbol>

  <!-- Play -->
  <symbol id="icon-play" viewBox="0 0 24 24" fill="currentColor" stroke="none">
    <polygon points="5 3 19 12 5 21 5 3"/>
  </symbol>

  <!-- Hand / Human oversight -->
  <symbol id="icon-hand" viewBox="0 0 24 24" fill="none" stroke="currentColor" stroke-width="2" stroke-linecap="round" stroke-linejoin="round">
    <path d="M18 11V6a2 2 0 0 0-4 0"/>
    <path d="M14 10V4a2 2 0 0 0-4 0v7"/>
    <path d="M10 10.5V6a2 2 0 0 0-4 0v8"/>
    <path d="M18 8a2 2 0 1 1 4 0v6a8 8 0 0 1-8 8h-2c-2.8 0-4.5-.86-5.99-2.34l-3.6-3.6a2 2 0 0 1 2.83-2.82L7 15"/>
  </symbol>

  <!-- Database / Memory -->
  <symbol id="icon-database" viewBox="0 0 24 24" fill="none" stroke="currentColor" stroke-width="2" stroke-linecap="round" stroke-linejoin="round">
    <ellipse cx="12" cy="5" rx="9" ry="3"/>
    <path d="M21 12c0 1.66-4 3-9 3s-9-1.34-9-3"/>
    <path d="M3 5v14c0 1.66 4 3 9 3s9-1.34 9-3V5"/>
  </symbol>

  <!-- Target / Strategy -->
  <symbol id="icon-target" viewBox="0 0 24 24" fill="none" stroke="currentColor" stroke-width="2" stroke-linecap="round" stroke-linejoin="round">
    <circle cx="12" cy="12" r="10"/>
    <circle cx="12" cy="12" r="6"/>
    <circle cx="12" cy="12" r="2"/>
  </symbol>

  <!-- Factory / Operations -->
  <symbol id="icon-factory" viewBox="0 0 24 24" fill="none" stroke="currentColor" stroke-width="2" stroke-linecap="round" stroke-linejoin="round">
    <path d="M2 20h20V8l-6 4V8l-6 4V4L2 8z"/>
    <rect x="6" y="20" width="3" height="2"/>
    <rect x="10" y="20" width="3" height="2"/>
    <rect x="15" y="20" width="3" height="2"/>
  </symbol>

  <!-- Scale / Legal -->
  <symbol id="icon-scale" viewBox="0 0 24 24" fill="none" stroke="currentColor" stroke-width="2" stroke-linecap="round" stroke-linejoin="round">
    <path d="M12 3v18"/>
    <path d="M5 6l7-3 7 3"/>
    <path d="M2 12l3-6 3 6a3 3 0 0 1-6 0z"/>
    <path d="M16 12l3-6 3 6a3 3 0 0 1-6 0z"/>
  </symbol>

  <!-- Briefcase / Finance -->
  <symbol id="icon-briefcase" viewBox="0 0 24 24" fill="none" stroke="currentColor" stroke-width="2" stroke-linecap="round" stroke-linejoin="round">
    <rect x="2" y="7" width="20" height="14" rx="2" ry="2"/>
    <path d="M16 7V5a2 2 0 0 0-2-2h-4a2 2 0 0 0-2 2v2"/>
    <line x1="2" y1="13" x2="22" y2="13"/>
  </symbol>

  <!-- Globe small for trusted logos -->
  <symbol id="icon-globe-sm" viewBox="0 0 24 24" fill="none" stroke="currentColor" stroke-width="2" stroke-linecap="round" stroke-linejoin="round">
    <circle cx="12" cy="12" r="10"/>
    <path d="M2 12h20"/>
    <path d="M12 2a15.3 15.3 0 0 1 4 10 15.3 15.3 0 0 1-4 10 15.3 15.3 0 0 1-4-10 15.3 15.3 0 0 1 4-10z"/>
  </symbol>

  <!-- Heart / Healthcare -->
  <symbol id="icon-heart" viewBox="0 0 24 24" fill="none" stroke="currentColor" stroke-width="2" stroke-linecap="round" stroke-linejoin="round">
    <path d="M20.84 4.61a5.5 5.5 0 0 0-7.78 0L12 5.67l-1.06-1.06a5.5 5.5 0 0 0-7.78 7.78l1.06 1.06L12 21.23l7.78-7.78 1.06-1.06a5.5 5.5 0 0 0 0-7.78z"/>
  </symbol>

  <!-- Bank / Finance -->
  <symbol id="icon-bank" viewBox="0 0 24 24" fill="none" stroke="currentColor" stroke-width="2" stroke-linecap="round" stroke-linejoin="round">
    <path d="M3 21h18"/>
    <path d="M3 10h18"/>
    <path d="M5 6l7-3 7 3"/>
    <path d="M4 10v11"/>
    <path d="M20 10v11"/>
    <path d="M8 14v3"/>
    <path d="M12 14v3"/>
    <path d="M16 14v3"/>
  </symbol>

  <!-- Lightning / Energy -->
  <symbol id="icon-lightning" viewBox="0 0 24 24" fill="none" stroke="currentColor" stroke-width="2" stroke-linecap="round" stroke-linejoin="round">
    <polygon points="13 2 3 14 12 14 11 22 21 10 12 10 13 2"/>
  </symbol>

  <!-- Graduation / Education -->
  <symbol id="icon-graduation" viewBox="0 0 24 24" fill="none" stroke="currentColor" stroke-width="2" stroke-linecap="round" stroke-linejoin="round">
    <path d="M22 10v6M2 10l10-5 10 5-10 5z"/>
    <path d="M6 12v5c0 1.66 2.69 3 6 3s6-1.34 6-3v-5"/>
  </symbol>

  <!-- Phone / Telecom -->
  <symbol id="icon-phone" viewBox="0 0 24 24" fill="none" stroke="currentColor" stroke-width="2" stroke-linecap="round" stroke-linejoin="round">
    <path d="M22 16.92v3a2 2 0 0 1-2.18 2 19.79 19.79 0 0 1-8.63-3.07 19.5 19.5 0 0 1-6-6 19.79 19.79 0 0 1-3.07-8.67A2 2 0 0 1 4.11 2h3a2 2 0 0 1 2 1.72 12.84 12.84 0 0 0 .7 2.81 2 2 0 0 1-.45 2.11L8.09 9.91a16 16 0 0 0 6 6l1.27-1.27a2 2 0 0 1 2.11-.45 12.84 12.84 0 0 0 2.81.7A2 2 0 0 1 22 16.92z"/>
  </symbol>

  <!-- Crosshair / Defense -->
  <symbol id="icon-crosshair" viewBox="0 0 24 24" fill="none" stroke="currentColor" stroke-width="2" stroke-linecap="round" stroke-linejoin="round">
    <circle cx="12" cy="12" r="10"/>
    <line x1="22" y1="12" x2="18" y2="12"/>
    <line x1="6" y1="12" x2="2" y2="12"/>
    <line x1="12" y1="6" x2="12" y2="2"/>
    <line x1="12" y1="22" x2="12" y2="18"/>
  </symbol>

  <!-- Microscope / Research -->
  <symbol id="icon-microscope" viewBox="0 0 24 24" fill="none" stroke="currentColor" stroke-width="2" stroke-linecap="round" stroke-linejoin="round">
    <path d="M6 18h8"/>
    <path d="M3 22h18"/>
    <path d="M14 22h7"/>
    <path d="M14 2v6h6"/>
    <rect x="4" y="8" width="6" height="8" rx="1"/>
  </symbol>

  <!-- Factory / Manufacturing -->
  <symbol id="icon-manufacturing" viewBox="0 0 24 24" fill="none" stroke="currentColor" stroke-width="2" stroke-linecap="round" stroke-linejoin="round">
    <path d="M2 20h20V8l-6 4V8l-6 4V4L2 8z"/>
  </symbol>

  <!-- Chevron down -->
  <symbol id="icon-chevron-down" viewBox="0 0 24 24" fill="none" stroke="currentColor" stroke-width="2" stroke-linecap="round" stroke-linejoin="round">
    <polyline points="6 9 12 15 18 9"/>
  </symbol>
</svg>
